<svg width="1325" height="1325" viewBox="0 0 1325 1325" fill="none" xmlns="http://www.w3.org/2000/svg">
<path d="M441.478 732.139C491.957 515.278 655.607 466.32 655.607 466.32C655.607 466.32 686.826 457.513 522.327 446.303C357.828 435.094 294.5 481 294.5 481C294.5 481 355.026 250.942 655.607 280.567C956.187 310.191 934.974 341.417 934.974 361.033C934.974 380.649 792.889 502.35 766.073 688.503C739.257 874.657 761.125 883.523 771.394 895.933C781.663 908.343 807.286 928.152 880.931 960.979C954.575 993.806 1014 984.347 1014 984.347C1014 984.347 966.078 1048 891.348 1048C816.619 1048 728.05 984.347 728.05 984.347C728.05 984.347 699.417 1002.95 655.607 997.158C611.797 991.362 391 949 441.478 732.139Z" fill="#245c43"/>
</svg>
