<svg width="1325" height="1325" viewBox="0 0 1325 1325" fill="none" xmlns="http://www.w3.org/2000/svg">
<circle cx="662.5" cy="662.5" r="662.5" fill="#C4694D"/>
<path d="M883.522 732.139C833.043 515.278 669.393 466.32 669.393 466.32C669.393 466.32 638.174 457.513 802.673 446.303C967.172 435.094 1030.5 481 1030.5 481C1030.5 481 969.974 250.942 669.393 280.567C368.813 310.191 390.026 341.417 390.026 361.033C390.026 380.649 532.111 502.35 558.927 688.503C585.743 874.657 563.875 883.523 553.606 895.933C543.337 908.343 517.714 928.152 444.069 960.979C370.425 993.806 311 984.347 311 984.347C311 984.347 358.922 1048 433.652 1048C508.381 1048 596.95 984.347 596.95 984.347C596.95 984.347 625.583 1002.95 669.393 997.158C713.203 991.362 934 949 883.522 732.139Z" fill="white"/>
<line x1="21.7467" y1="711.698" x2="1205.75" y2="1003.7" stroke="white" stroke-width="48"/>
<circle cx="662.5" cy="662.5" r="644.5" stroke="white" stroke-width="36"/>
</svg>
