<svg width="1361" height="1361" viewBox="0 0 1361 1361" fill="none" xmlns="http://www.w3.org/2000/svg">
<rect width="1361" height="1361" fill="white"/>
<circle cx="680.5" cy="680.5" r="662.5" fill="#C4694D"/>
<path d="M901.522 750.139C851.043 533.278 687.393 484.32 687.393 484.32C687.393 484.32 656.174 475.513 820.673 464.303C985.172 453.094 1048.5 499 1048.5 499C1048.5 499 987.974 268.942 687.393 298.567C386.813 328.191 408.026 359.417 408.026 379.033C408.026 398.649 550.111 520.35 576.927 706.503C603.743 892.657 581.875 901.523 571.606 913.933C561.337 926.343 535.714 946.152 462.069 978.979C388.425 1011.81 329 1002.35 329 1002.35C329 1002.35 376.922 1066 451.652 1066C526.381 1066 614.95 1002.35 614.95 1002.35C614.95 1002.35 643.583 1020.95 687.393 1015.16C731.203 1009.36 952 967 901.522 750.139Z" fill="white"/>
<line x1="39.7467" y1="729.698" x2="1223.75" y2="1021.7" stroke="white" stroke-width="48"/>
<circle cx="680.5" cy="680.5" r="644.5" stroke="white" stroke-width="36"/>
</svg>
